<svg xmlns="http://www.w3.org/2000/svg" viewBox="0 0 900 520" role="img">
  
  <defs>
    <linearGradient id="bg" x1="0" y1="0" x2="1" y2="1">
      <stop offset="0" stop-color="#F4FBFF"/>
      <stop offset="0.58" stop-color="#FFFFFF"/>
      <stop offset="1" stop-color="#F2F9FF"/>
    </linearGradient>
    <linearGradient id="blue" x1="0" x2="1"><stop offset="0" stop-color="#075EA8"/><stop offset="1" stop-color="#2FA8D7"/></linearGradient>
    <linearGradient id="soft" x1="0" x2="1"><stop offset="0" stop-color="#EAF6FF"/><stop offset="1" stop-color="#F7FCFF"/></linearGradient>
    <filter id="shadow" x="-20%" y="-20%" width="140%" height="140%"><feDropShadow dx="0" dy="18" stdDeviation="22" flood-color="#075EA8" flood-opacity="0.14"/></filter>
    <filter id="blur"><feGaussianBlur stdDeviation="16"/></filter>
  </defs>
  <rect width="900" height="520" rx="42" fill="url(#bg)"/>
  <circle cx="760" cy="86" r="150" fill="#D9EEFF" opacity=".42" filter="url(#blur)"/>
  <circle cx="124" cy="430" r="160" fill="#D8F2FA" opacity=".33" filter="url(#blur)"/>
  <g opacity="0.55" fill="#fff">
      <ellipse cx="160" cy="108.16" rx="86.39999999999999" ry="27.36"/>
      <ellipse cx="118.24000000000001" cy="102.4" rx="44.64" ry="24.48"/>
      <ellipse cx="152.8" cy="88" rx="54.72" ry="34.56"/>
      <ellipse cx="207.51999999999998" cy="93.76" rx="51.839999999999996" ry="30.24"/>
    </g>
  <g opacity="0.62" fill="#fff">
      <ellipse cx="720" cy="180.76" rx="110.4" ry="34.96"/>
      <ellipse cx="666.64" cy="173.4" rx="57.04" ry="31.28"/>
      <ellipse cx="710.8" cy="155" rx="69.92" ry="44.160000000000004"/>
      <ellipse cx="780.72" cy="162.36" rx="66.24000000000001" ry="38.64"/>
    </g>
  <g opacity="0.54" fill="#fff">
      <ellipse cx="448" cy="447.6" rx="84.0" ry="26.599999999999998"/>
      <ellipse cx="407.4" cy="442.0" rx="43.4" ry="23.799999999999997"/>
      <ellipse cx="441.0" cy="428" rx="53.199999999999996" ry="33.599999999999994"/>
      <ellipse cx="494.2" cy="433.6" rx="50.4" ry="29.4"/>
    </g>
  <path d="M0 412 C130 360 232 430 360 382 C500 330 626 392 900 332 L900 520 L0 520 Z" fill="#E2F5FA" opacity=".35"/>
  <path d="M0 445 C150 395 310 455 458 414 C612 370 730 430 900 388 L900 520 L0 520 Z" fill="#DCEFFF" opacity=".38"/>
  
  <g><path d="M90 300 C135.0 260, 135.0 270, 180 230" stroke="url(#blue)" stroke-width="2" fill="none" opacity="0.369"/><path d="M180 230 C243.0 190, 243.0 320, 306 280" stroke="url(#blue)" stroke-width="2" fill="none" opacity="0.369"/><path d="M306 280 C367.0 240, 367.0 210, 428 170" stroke="url(#blue)" stroke-width="2" fill="none" opacity="0.369"/><path d="M428 170 C494.0 130, 494.0 280, 560 240" stroke="url(#blue)" stroke-width="2" fill="none" opacity="0.369"/><path d="M560 240 C631.0 200, 631.0 172, 702 132" stroke="url(#blue)" stroke-width="2" fill="none" opacity="0.369"/><path d="M702 132 C756.0 92, 756.0 246, 810 206" stroke="url(#blue)" stroke-width="2" fill="none" opacity="0.369"/><circle cx="90" cy="300" r="5" fill="url(#blue)" opacity="0.82"/><circle cx="90" cy="300" r="12" fill="#075EA8" opacity=".06"/><circle cx="180" cy="230" r="5" fill="url(#blue)" opacity="0.82"/><circle cx="180" cy="230" r="12" fill="#075EA8" opacity=".06"/><circle cx="306" cy="280" r="5" fill="url(#blue)" opacity="0.82"/><circle cx="306" cy="280" r="12" fill="#075EA8" opacity=".06"/><circle cx="428" cy="170" r="5" fill="url(#blue)" opacity="0.82"/><circle cx="428" cy="170" r="12" fill="#075EA8" opacity=".06"/><circle cx="560" cy="240" r="5" fill="url(#blue)" opacity="0.82"/><circle cx="560" cy="240" r="12" fill="#075EA8" opacity=".06"/><circle cx="702" cy="132" r="5" fill="url(#blue)" opacity="0.82"/><circle cx="702" cy="132" r="12" fill="#075EA8" opacity=".06"/><circle cx="810" cy="206" r="5" fill="url(#blue)" opacity="0.82"/><circle cx="810" cy="206" r="12" fill="#075EA8" opacity=".06"/></g>
  <rect x="92" y="118" width="360" height="244" rx="26" fill="#fff" opacity="0.86" stroke="#BFDDF5" stroke-opacity=".9" filter="url(#shadow)"/>
  <rect x="126" y="150" width="146" height="13" rx="7" fill="#9BC6E7" opacity=".75"/>
  <rect x="126" y="180" width="250" height="10" rx="5" fill="#D7ECFA"/>
  <rect x="126" y="206" width="210" height="10" rx="5" fill="#D7ECFA" opacity=".8"/>
  <path d="M128 302 C178 254 226 336 282 272 C332 214 380 250 420 176" stroke="url(#blue)" stroke-width="7" fill="none" stroke-linecap="round"/>
  <circle cx="420" cy="176" r="10" fill="#2FA8D7"/>
  <rect x="526" y="246" width="260" height="136" rx="24" fill="#fff" opacity="0.82" stroke="#BFDDF5" stroke-opacity=".9" filter="url(#shadow)"/>
  <circle cx="582" cy="314" r="34" fill="url(#blue)" opacity=".72"/>
  <path d="M570 314 h24 M582 302 v24" stroke="#fff" stroke-width="5" stroke-linecap="round"/>
  <rect x="638" y="287" width="104" height="10" rx="5" fill="#9BC6E7" opacity=".75"/>
  <rect x="638" y="316" width="136" height="10" rx="5" fill="#D7ECFA"/>
  <rect x="638" y="344" width="90" height="10" rx="5" fill="#D7ECFA" opacity=".75"/>

</svg>