<svg xmlns="http://www.w3.org/2000/svg" viewBox="0 0 900 520" role="img">
  
  <defs>
    <linearGradient id="bg" x1="0" y1="0" x2="1" y2="1">
      <stop offset="0" stop-color="#F4FBFF"/>
      <stop offset="0.58" stop-color="#FFFFFF"/>
      <stop offset="1" stop-color="#F2F9FF"/>
    </linearGradient>
    <linearGradient id="blue" x1="0" x2="1"><stop offset="0" stop-color="#075EA8"/><stop offset="1" stop-color="#2FA8D7"/></linearGradient>
    <linearGradient id="soft" x1="0" x2="1"><stop offset="0" stop-color="#EAF6FF"/><stop offset="1" stop-color="#F7FCFF"/></linearGradient>
    <filter id="shadow" x="-20%" y="-20%" width="140%" height="140%"><feDropShadow dx="0" dy="18" stdDeviation="22" flood-color="#075EA8" flood-opacity="0.14"/></filter>
    <filter id="blur"><feGaussianBlur stdDeviation="16"/></filter>
  </defs>
  <rect width="900" height="520" rx="42" fill="url(#bg)"/>
  <circle cx="760" cy="86" r="150" fill="#D9EEFF" opacity=".42" filter="url(#blur)"/>
  <circle cx="124" cy="430" r="160" fill="#D8F2FA" opacity=".33" filter="url(#blur)"/>
  <g opacity="0.55" fill="#fff">
      <ellipse cx="160" cy="108.16" rx="86.39999999999999" ry="27.36"/>
      <ellipse cx="118.24000000000001" cy="102.4" rx="44.64" ry="24.48"/>
      <ellipse cx="152.8" cy="88" rx="54.72" ry="34.56"/>
      <ellipse cx="207.51999999999998" cy="93.76" rx="51.839999999999996" ry="30.24"/>
    </g>
  <g opacity="0.62" fill="#fff">
      <ellipse cx="720" cy="180.76" rx="110.4" ry="34.96"/>
      <ellipse cx="666.64" cy="173.4" rx="57.04" ry="31.28"/>
      <ellipse cx="710.8" cy="155" rx="69.92" ry="44.160000000000004"/>
      <ellipse cx="780.72" cy="162.36" rx="66.24000000000001" ry="38.64"/>
    </g>
  <g opacity="0.54" fill="#fff">
      <ellipse cx="448" cy="447.6" rx="84.0" ry="26.599999999999998"/>
      <ellipse cx="407.4" cy="442.0" rx="43.4" ry="23.799999999999997"/>
      <ellipse cx="441.0" cy="428" rx="53.199999999999996" ry="33.599999999999994"/>
      <ellipse cx="494.2" cy="433.6" rx="50.4" ry="29.4"/>
    </g>
  <path d="M0 412 C130 360 232 430 360 382 C500 330 626 392 900 332 L900 520 L0 520 Z" fill="#E2F5FA" opacity=".35"/>
  <path d="M0 445 C150 395 310 455 458 414 C612 370 730 430 900 388 L900 520 L0 520 Z" fill="#DCEFFF" opacity=".38"/>
  
  <g><path d="M178 258 C239.0 218, 239.0 198, 300 158" stroke="url(#blue)" stroke-width="2" fill="none" opacity="0.35100000000000003"/><path d="M300 158 C375.0 118, 375.0 280, 450 240" stroke="url(#blue)" stroke-width="2" fill="none" opacity="0.35100000000000003"/><path d="M450 240 C524.0 200, 524.0 194, 598 154" stroke="url(#blue)" stroke-width="2" fill="none" opacity="0.35100000000000003"/><path d="M598 154 C664.0 114, 664.0 300, 730 260" stroke="url(#blue)" stroke-width="2" fill="none" opacity="0.35100000000000003"/><path d="M730 260 C660.0 220, 660.0 400, 590 360" stroke="url(#blue)" stroke-width="2" fill="none" opacity="0.35100000000000003"/><path d="M590 360 C520.0 320, 520.0 360, 450 320" stroke="url(#blue)" stroke-width="2" fill="none" opacity="0.35100000000000003"/><path d="M450 320 C375.0 280, 375.0 400, 300 360" stroke="url(#blue)" stroke-width="2" fill="none" opacity="0.35100000000000003"/><circle cx="178" cy="258" r="5" fill="url(#blue)" opacity="0.78"/><circle cx="178" cy="258" r="12" fill="#075EA8" opacity=".06"/><circle cx="300" cy="158" r="5" fill="url(#blue)" opacity="0.78"/><circle cx="300" cy="158" r="12" fill="#075EA8" opacity=".06"/><circle cx="450" cy="240" r="5" fill="url(#blue)" opacity="0.78"/><circle cx="450" cy="240" r="12" fill="#075EA8" opacity=".06"/><circle cx="598" cy="154" r="5" fill="url(#blue)" opacity="0.78"/><circle cx="598" cy="154" r="12" fill="#075EA8" opacity=".06"/><circle cx="730" cy="260" r="5" fill="url(#blue)" opacity="0.78"/><circle cx="730" cy="260" r="12" fill="#075EA8" opacity=".06"/><circle cx="590" cy="360" r="5" fill="url(#blue)" opacity="0.78"/><circle cx="590" cy="360" r="12" fill="#075EA8" opacity=".06"/><circle cx="450" cy="320" r="5" fill="url(#blue)" opacity="0.78"/><circle cx="450" cy="320" r="12" fill="#075EA8" opacity=".06"/><circle cx="300" cy="360" r="5" fill="url(#blue)" opacity="0.78"/><circle cx="300" cy="360" r="12" fill="#075EA8" opacity=".06"/></g>
  <circle cx="450" cy="260" r="68" fill="#fff" stroke="#BFDDF5" stroke-width="2" filter="url(#shadow)"/>
  <path d="M424 270 c10-42 62-42 72 0" stroke="url(#blue)" stroke-width="7" fill="none" stroke-linecap="round"/>
  <circle cx="460" cy="236" r="24" fill="#DDF4FF" stroke="#075EA8" stroke-width="3" opacity=".78"/>
  <g fill="#fff" stroke="#BFDDF5" stroke-width="2" filter="url(#shadow)">
    <circle cx="178" cy="258" r="42"/><circle cx="300" cy="158" r="42"/><circle cx="598" cy="154" r="42"/><circle cx="730" cy="260" r="42"/><circle cx="590" cy="360" r="42"/><circle cx="300" cy="360" r="42"/>
  </g>
  <g stroke="url(#blue)" stroke-width="5" stroke-linecap="round" opacity=".75"><path d="M160 258 h36"/><path d="M282 158 h36"/><path d="M580 154 h36"/><path d="M712 260 h36"/><path d="M572 360 h36"/><path d="M282 360 h36"/></g>

</svg>